# xmcd
#
# Track frame offsets: 
#        157
#        13852
#        28510
#        45667
#        59227
#        75820
#        96257
#        113937
#        132512
#        147172
#        168355
#
# Disc length: 2425 seconds
#
# Revision: 1
# Processed by: cddbd v1.5.2PL0 Copyright (c) Steve Scherf et al.
# Submitted via: ExactAudioCopy v0.99pb5
#
DISCID=9209770b
DTITLE=Don Francisco - Come Away
DYEAR=1992
DGENRE=Contemporary Christian
TTITLE0=Come Away
TTITLE1=Cause And Effect
TTITLE2=Restin' In Jesus
TTITLE3=Forever Loved
TTITLE4=And The Spirit Sings
TTITLE5=Does God Still Get The Blues?
TTITLE6=The Fast
TTITLE7=Son Of Righteousness
TTITLE8=Freedom To Move
TTITLE9=Feed My Sheep
TTITLE10=Come Away (Reprise)
EXTD=
EXTT0=
EXTT1=
EXTT2=
EXTT3=
EXTT4=
EXTT5=
EXTT6=
EXTT7=
EXTT8=
EXTT9=
EXTT10=
PLAYORDER=
